<svg width="100" height="100" viewBox="0 0 100 100" fill="none" xmlns="http://www.w3.org/2000/svg">
  <g transform="translate(50, 50)">
    <line x1="0" y1="-18" x2="0" y2="-50" stroke="#047857" stroke-width="4" stroke-linecap="round" transform="rotate(0)" />
    <line x1="0" y1="-18" x2="0" y2="-23" stroke="#047857" stroke-width="4" stroke-linecap="round" transform="rotate(11.25)" />
    <line x1="0" y1="-18" x2="0" y2="-28" stroke="#047857" stroke-width="4" stroke-linecap="round" transform="rotate(22.5)" />
    <line x1="0" y1="-18" x2="0" y2="-23" stroke="#047857" stroke-width="4" stroke-linecap="round" transform="rotate(33.75)" />
    <line x1="0" y1="-18" x2="0" y2="-38" stroke="#047857" stroke-width="4" stroke-linecap="round" transform="rotate(45)" />
    <line x1="0" y1="-18" x2="0" y2="-23" stroke="#047857" stroke-width="4" stroke-linecap="round" transform="rotate(56.25)" />
    <line x1="0" y1="-18" x2="0" y2="-28" stroke="#047857" stroke-width="4" stroke-linecap="round" transform="rotate(67.5)" />
    <line x1="0" y1="-18" x2="0" y2="-23" stroke="#047857" stroke-width="4" stroke-linecap="round" transform="rotate(78.75)" />
    <line x1="0" y1="-18" x2="0" y2="-50" stroke="#047857" stroke-width="4" stroke-linecap="round" transform="rotate(90)" />
    <line x1="0" y1="-18" x2="0" y2="-23" stroke="#047857" stroke-width="4" stroke-linecap="round" transform="rotate(101.25)" />
    <line x1="0" y1="-18" x2="0" y2="-28" stroke="#047857" stroke-width="4" stroke-linecap="round" transform="rotate(112.5)" />
    <line x1="0" y1="-18" x2="0" y2="-23" stroke="#047857" stroke-width="4" stroke-linecap="round" transform="rotate(123.75)" />
    <line x1="0" y1="-18" x2="0" y2="-38" stroke="#047857" stroke-width="4" stroke-linecap="round" transform="rotate(135)" />
    <line x1="0" y1="-18" x2="0" y2="-23" stroke="#047857" stroke-width="4" stroke-linecap="round" transform="rotate(146.25)" />
    <line x1="0" y1="-18" x2="0" y2="-28" stroke="#047857" stroke-width="4" stroke-linecap="round" transform="rotate(157.5)" />
    <line x1="0" y1="-18" x2="0" y2="-23" stroke="#047857" stroke-width="4" stroke-linecap="round" transform="rotate(168.75)" />
    <line x1="0" y1="-18" x2="0" y2="-50" stroke="#047857" stroke-width="4" stroke-linecap="round" transform="rotate(180)" />
    <line x1="0" y1="-18" x2="0" y2="-23" stroke="#047857" stroke-width="4" stroke-linecap="round" transform="rotate(191.25)" />
    <line x1="0" y1="-18" x2="0" y2="-28" stroke="#047857" stroke-width="4" stroke-linecap="round" transform="rotate(202.5)" />
    <line x1="0" y1="-18" x2="0" y2="-23" stroke="#047857" stroke-width="4" stroke-linecap="round" transform="rotate(213.75)" />
    <line x1="0" y1="-18" x2="0" y2="-38" stroke="#047857" stroke-width="4" stroke-linecap="round" transform="rotate(225)" />
    <line x1="0" y1="-18" x2="0" y2="-23" stroke="#047857" stroke-width="4" stroke-linecap="round" transform="rotate(236.25)" />
    <line x1="0" y1="-18" x2="0" y2="-28" stroke="#047857" stroke-width="4" stroke-linecap="round" transform="rotate(247.5)" />
    <line x1="0" y1="-18" x2="0" y2="-23" stroke="#047857" stroke-width="4" stroke-linecap="round" transform="rotate(258.75)" />
    <line x1="0" y1="-18" x2="0" y2="-50" stroke="#047857" stroke-width="4" stroke-linecap="round" transform="rotate(270)" />
    <line x1="0" y1="-18" x2="0" y2="-23" stroke="#047857" stroke-width="4" stroke-linecap="round" transform="rotate(281.25)" />
    <line x1="0" y1="-18" x2="0" y2="-28" stroke="#047857" stroke-width="4" stroke-linecap="round" transform="rotate(292.5)" />
    <line x1="0" y1="-18" x2="0" y2="-23" stroke="#047857" stroke-width="4" stroke-linecap="round" transform="rotate(303.75)" />
    <line x1="0" y1="-18" x2="0" y2="-38" stroke="#047857" stroke-width="4" stroke-linecap="round" transform="rotate(315)" />
    <line x1="0" y1="-18" x2="0" y2="-23" stroke="#047857" stroke-width="4" stroke-linecap="round" transform="rotate(326.25)" />
    <line x1="0" y1="-18" x2="0" y2="-28" stroke="#047857" stroke-width="4" stroke-linecap="round" transform="rotate(337.5)" />
    <line x1="0" y1="-18" x2="0" y2="-23" stroke="#047857" stroke-width="4" stroke-linecap="round" transform="rotate(348.75)" />
  </g>
</svg>